<svg xmlns="http://www.w3.org/2000/svg" shape-rendering="geometricPrecision" text-rendering="geometricPrecision" image-rendering="optimizeQuality" fill-rule="evenodd" clip-rule="evenodd" viewBox="0 0 443 511.933"><path fill="#42445D" d="M443 178.202c0 8.926-5.323 16.607-12.967 20.046v30.991c0 2.767-1.13 5.284-2.957 7.108a10.018 10.018 0 01-7.101 2.947h-44.746c-2.339 13.421-5.333 26.173-8.951 38.281h53.697c2.768 0 5.281 1.127 7.101 2.947a10.025 10.025 0 012.957 7.108v30.992C437.678 322.06 443 329.741 443 338.667c0 12.133-9.835 21.969-21.968 21.969-12.134 0-21.969-9.836-21.969-21.969 0-9.121 5.556-16.94 13.469-20.263l-.003-21.97h-52.577c-16.565 44.164-42.353 78.667-76.034 104.16v30.924h21.971c3.323-7.911 11.143-13.466 20.262-13.466 12.134 0 21.969 9.835 21.969 21.969s-9.835 21.968-21.969 21.968c-8.926 0-16.608-5.323-20.045-12.966h-30.992a10.026 10.026 0 01-7.108-2.958 10.023 10.023 0 01-2.947-7.101v-25.53c-10.994 6.717-22.682 12.626-35.032 17.745v38.881c7.481 3.503 12.662 11.097 12.662 19.904 0 12.134-9.834 21.969-21.968 21.969-12.133 0-21.969-9.835-21.969-21.969 0-9.228 5.69-17.125 13.751-20.378v-38.549c-12.334-5.017-24.025-10.865-35.031-17.589v25.516c0 2.768-1.128 5.281-2.947 7.101a10.028 10.028 0 01-7.108 2.958h-30.992c-3.439 7.644-11.119 12.966-20.045 12.966-12.134 0-21.969-9.834-21.969-21.968s9.835-21.969 21.969-21.969c9.12 0 16.94 5.556 20.263 13.469l21.969-.003v-30.982c-32.566-24.906-57.839-59.097-74.418-104.102H30.471v21.971c7.911 3.323 13.466 11.143 13.466 20.262 0 12.133-9.835 21.969-21.969 21.969C9.835 360.636 0 350.8 0 338.667c0-8.926 5.322-16.607 12.967-20.045V287.63c0-2.767 1.13-5.283 2.957-7.108a10.018 10.018 0 017.101-2.947h54.916c-3.568-12.054-6.572-24.808-8.996-38.281h-45.92a10.018 10.018 0 01-7.101-2.947 10.023 10.023 0 01-2.957-7.108v-30.991C5.322 194.809 0 187.128 0 178.202c0-12.133 9.835-21.968 21.968-21.968 12.134 0 21.969 9.835 21.969 21.968 0 9.121-5.556 16.941-13.469 20.264l.003 21.969h35.524c-3.576-26.784-5.017-56.197-4.172-88.408 34.737 1.817 66.746-2.536 96.789-13.732v-37.88h-21.97c-3.324 7.911-11.143 13.466-20.262 13.466-12.134 0-21.969-9.835-21.969-21.969 0-12.133 9.835-21.968 21.969-21.968 8.926 0 16.606 5.322 20.045 12.967h30.992a10.03 10.03 0 017.108 2.957 10.023 10.023 0 012.947 7.101v37.271c11.961-5.78 23.62-12.731 35.031-20.896V42.347c-8.062-3.253-13.751-11.15-13.751-20.378C198.752 9.835 208.588 0 220.721 0c12.134 0 21.968 9.835 21.968 21.969 0 8.807-5.181 16.401-12.662 19.904v46.8c11.922 7.22 23.604 13.626 35.032 19.196v-34.9c0-2.768 1.128-5.281 2.947-7.101a10.03 10.03 0 017.108-2.957h30.992c3.438-7.645 11.119-12.967 20.045-12.967 12.134 0 21.969 9.835 21.969 21.968 0 12.134-9.835 21.969-21.969 21.969-9.12 0-16.942-5.557-20.264-13.47l-21.969.004v35.981c35.013 14.566 67.431 20.79 96.773 18.108 1.535 31.036.595 59.652-2.661 85.931h34.499v-21.97c-7.911-3.323-13.466-11.144-13.466-20.263 0-12.133 9.835-21.968 21.969-21.968 12.133 0 21.968 9.835 21.968 21.968z"/><path fill="#71CE37" d="M221.013 103.931c52.548 33.307 100.022 49.068 140.764 45.342 7.112 143.914-46.034 228.91-140.214 264.378-90.955-33.199-144.759-114.529-140.766-266.562 52.729 2.761 98.324-10.611 140.216-43.158z"/><path fill="#42445D" fill-rule="nonzero" d="M172.442 221.593h4.885v-2.761c0-12.522 4.936-23.938 12.889-32.236 8.018-8.357 19.091-13.55 31.285-13.55 12.197 0 23.272 5.189 31.284 13.55 7.956 8.298 12.893 19.711 12.893 32.236v2.761h4.881c4.319 0 8.251 1.77 11.103 4.621 2.872 2.87 4.655 6.812 4.655 11.133v76.171c0 4.342-1.772 8.285-4.622 11.136a15.717 15.717 0 01-11.136 4.622h-98.117a15.715 15.715 0 01-11.136-4.622l.017-.017c-2.863-2.869-4.639-6.807-4.639-11.119v-76.171c0-4.321 1.783-8.263 4.655-11.133 2.851-2.85 6.783-4.621 11.103-4.621zm18.532 0h61.05v-2.76c0-8.907-3.466-16.974-9.052-22.8-5.524-5.762-13.126-9.337-21.475-9.337-8.344 0-15.95 3.579-21.471 9.337-5.588 5.826-9.052 13.896-9.052 22.8v2.76z"/><path fill="#fff" d="M172.442 230.143h98.117c3.965 0 7.208 3.239 7.208 7.204v76.171c0 3.966-3.243 7.208-7.208 7.208h-98.117c-3.966 0-7.208-3.242-7.208-7.208v-76.171c0-3.965 3.242-7.204 7.208-7.204zm43.142 50.173l-7.779 20.372h27.386l-7.204-20.65c4.573-2.354 7.701-7.119 7.701-12.617 0-7.837-6.352-14.189-14.19-14.189-7.835 0-14.183 6.352-14.183 14.189-.001 5.721 3.388 10.651 8.269 12.895z"/></svg>